<?xml version="1.0" encoding="utf-8"?>
<!-- Generator: Adobe Illustrator 23.0.4, SVG Export Plug-In . SVG Version: 6.00 Build 0)  -->
<svg version="1.1" id="Camada_1" xmlns="http://www.w3.org/2000/svg" xmlns:xlink="http://www.w3.org/1999/xlink" x="0px" y="0px"
	 viewBox="0 0 343 23.6" style="enable-background:new 0 0 343 23.6;" xml:space="preserve">
<style type="text/css">
	.st0{fill:#FFFFFF;}
</style>
<g>
	<polygon class="st0" points="0,0.5 19.6,11.8 0,23.1 	"/>
	<path class="st0" d="M68.1,0.5c1.1,0.3,2,0.7,2.6,1.1C71.4,2,72,2.5,72.5,2.9c0.5,0.4,0.9,0.8,1.1,1.1L74,4.5L71,7.6
		c-0.1-0.1-0.2-0.2-0.3-0.4c-0.1-0.2-0.4-0.4-0.7-0.8c-0.4-0.4-0.8-0.7-1.3-1c-0.5-0.3-1-0.5-1.8-0.8c-0.7-0.2-1.5-0.4-2.3-0.4
		c-2.1,0-3.9,0.7-5.3,2.1c-1.4,1.4-2.1,3.2-2.1,5.3c0,2.1,0.7,3.9,2.1,5.3c1.4,1.4,3.2,2.1,5.3,2.1c0.8,0,1.6-0.1,2.4-0.3
		c0.7-0.2,1.4-0.5,1.9-0.8c0.5-0.3,0.9-0.6,1.3-0.9c0.4-0.3,0.7-0.6,0.8-0.8l0.3-0.3l2.9,3.1c-0.1,0.1-0.2,0.3-0.4,0.5
		c-0.2,0.2-0.6,0.6-1.2,1.1c-0.6,0.5-1.2,1-1.9,1.4c-0.7,0.4-1.6,0.8-2.7,1.1c-1.1,0.3-2.2,0.5-3.4,0.5c-3.4,0-6.4-1.2-8.7-3.5
		c-2.4-2.3-3.6-5.1-3.6-8.3c0-3.2,1.2-6,3.6-8.3C58.3,1.2,61.2,0,64.7,0C65.9,0,67,0.2,68.1,0.5z"/>
	<path class="st0" d="M108.8,0.5h10c2.2,0,4.1,0.7,5.6,2.2c1.5,1.4,2.2,3.2,2.2,5.3c0,0.9-0.1,1.7-0.4,2.5c-0.3,0.8-0.6,1.4-1,1.9
		c-0.4,0.5-0.8,0.9-1.2,1.2c-0.4,0.3-0.7,0.6-1,0.7l-0.4,0.2l4.8,8.6h-5.2l-4.3-7.9h-4.2v7.9h-4.9V0.5z M120.8,5.7
		c-0.6-0.6-1.3-0.9-2.2-0.9h-5v6h5c0.9,0,1.6-0.3,2.2-0.8c0.6-0.6,0.9-1.3,0.9-2.1C121.7,7,121.4,6.3,120.8,5.7z"/>
	<path class="st0" d="M163.5,3.5c2.4-2.3,5.3-3.5,8.7-3.5c3.4,0,6.3,1.2,8.7,3.5s3.6,5.1,3.6,8.3c0,3.2-1.2,6-3.6,8.3
		c-2.4,2.3-5.3,3.5-8.7,3.5c-3.4,0-6.3-1.2-8.7-3.5c-2.4-2.3-3.6-5.1-3.6-8.3C160,8.5,161.2,5.8,163.5,3.5z M167.1,17.1
		c1.4,1.4,3.1,2.1,5.1,2.1s3.7-0.7,5.1-2.1c1.4-1.4,2.1-3.2,2.1-5.3s-0.7-3.8-2.1-5.3c-1.4-1.4-3.1-2.2-5.1-2.2s-3.7,0.7-5.1,2.2
		c-1.4,1.4-2.1,3.2-2.1,5.3S165.7,15.6,167.1,17.1z"/>
	<path class="st0" d="M228.7,0.5l4.7,15.5L238,0.5h5.2l-7.4,22.6h-4.5l-4.8-15.2l-4.8,15.2h-4.5l-7.4-22.6h5.2l4.7,15.5l4.7-15.5
		H228.7z"/>
	<path class="st0" d="M279,0.5c3.3,0,6,1.1,8.3,3.3c2.2,2.2,3.3,4.9,3.3,8c0,3.2-1.1,5.8-3.3,8c-2.2,2.2-5,3.3-8.3,3.3h-8.4V0.5H279
		z M275.4,4.8v13.9h3.5c1.9,0,3.5-0.7,4.8-2c1.3-1.3,2-3,2-4.9s-0.6-3.6-1.9-4.9c-1.3-1.3-2.9-2-4.8-2H275.4z"/>
	<polygon class="st0" points="343,0.5 323.4,11.8 343,23.1 	"/>
</g>
</svg>
